<?xml version="1.0" encoding="utf-8"?>
<!-- Generator: Adobe Illustrator 24.2.3, SVG Export Plug-In . SVG Version: 6.00 Build 0)  -->
<svg version="1.1" id="Layer_1" xmlns="http://www.w3.org/2000/svg" xmlns:xlink="http://www.w3.org/1999/xlink" x="0px" y="0px"
	 viewBox="0 0 760.33 300.56" style="enable-background:new 0 0 760.33 300.56;" xml:space="preserve">
<style type="text/css">
	.st0{fill:#FFFFFF;}
</style>
<g id="xDnDLr.tif">
	<g>
		<path class="st0" d="M760.33,225.42c0,25.05,0,50.09,0,75.14c-253.44,0-506.89,0-760.33,0C0,200.37,0,100.19,0,0
			c14.28,0,26.93,0,41.24,0c-2.22,3.33-6.62,7.01-6.15,9.9c0.66,4.09,4.92,7.6,8.22,12.16c-3.33,2.86-6.7,5.26-9.39,8.27
			c-1.5,1.67-3.15,4.83-2.53,6.5c3.33,8.92-0.91,13.04-8.76,14.84c-7.49,1.72-9.94,5.69-6.8,12.77
			C-1.79,76.81-2.1,85.08,5.56,100.51c2.6,5.25,4.1,11.17,5.32,16.96c6.39,30.2,16.86,58.75,32.67,85.37
			c26.86,45.23,63.49,77.99,116.08,89.19c43.81,9.33,87.86,10.64,131.61-1.42c2.82-0.78,5.89-0.6,8.8-1.13
			c10.35-1.87,20.75-3.56,30.94-6.06c1.84-0.45,3.82-4.43,3.84-6.79c0.01-1.74-2.87-4.72-4.81-5.03c-8.07-1.32-17.64-4.91-24.12-2
			c-12.1,5.43-22.4-3.09-35.42,1.35c4.2-7.21,7.01-12.03,10.11-17.36c-10.37-4.03-14.84,2.76-20.37,7.41
			c-3.18,2.68-7.42,7.03-10.45,6.5c-30.25-5.3-56.76-18.25-79.66-39.17c-45.06-41.17-48.37-95.88-50.13-151.19
			c-0.19-5.97,3.85-8.48,9.7-6.99c4.31,1.1,8.45,3,12.8,3.81c3.37,0.63,6.95,0.13,12.18,0.13c-8.43-13.26-20.79-15.53-32.05-19.62
			l0.17,0.18c-4.47-2.2-8.89-4.51-13.42-6.58c-10.3-4.71-17.82-15.16-30.69-14.78c-1.64,0.05-4.83-2.16-4.79-3.23
			c0.43-11.69-7.96-8.34-14.13-8.53c-5.28-0.16-9.63-1.86-7.3-7.8C55.27,6.56,51.02,3.5,46.6,0h713.73v221.84
			c-1.86-0.88-3.72-2.51-5.57-2.5c-11.35,0.03-19.01-6.62-25.6-14.44c-7.67-9.08-14.52-18.85-21.76-28.3
			c-3.25-4.24-3.07-7.57,1.27-11.39c10.71-9.43,22.07-17.06,36.76-18.69c2.24-0.25,4.2-3.01,6.29-4.61
			c-2.17-1.37-4.28-3.8-6.53-3.94c-13.97-0.85-27.96-1.34-41.95-1.55c-2.12-0.03-4.26,1.99-6.4,3.06c1.81,1.82,3.38,4.03,5.5,5.37
			c2.36,1.51,5.21,2.24,10.27,4.29c-12.41,10.29-23.18,19.24-33.96,28.18c-1.12-0.53-1.27-0.6-2.39-1.12c0-3.55,0-7.1,0-10.66
			c0-32.2,0.06-64.4-0.1-96.6c-0.01-3.04-1.37-6.07-2.1-9.1c-3.23,0.89-6.63,1.41-9.67,2.74c-5.7,2.49-11.28,5.32-16.76,8.28
			c-2.62,1.42-4.92,3.44-8.72,6.17c4.18,2.27,6.59,3.82,9.19,4.96c5.8,2.53,8.82,6.69,8.82,13.14c-0.04,37.86,0.2,75.72-0.35,113.57
			c-0.06,3.88-4.68,7.78-7.42,11.5c-1.77,2.4-3.98,4.48-7.62,8.51c18.35,0,33.47,0.14,48.59-0.14c2.43-0.05,4.82-2,7.24-3.08
			c-2.32-1.79-4.42-4.02-7-5.27c-3.63-1.76-8.89-1.7-11.19-4.36c-8.42-9.74-2.06-27.47,10.53-31.03
			c7.51,10.33,15.33,20.45,22.45,31.05c7.48,11.14,16.37,17.63,30.53,13.29C748.39,227.4,754.43,226.63,760.33,225.42z
			 M350.42,71.56c-3.88,0-6.78,0-9.69,0c-30.27-0.01-60.54-0.07-90.8,0.1c-2.21,0.01-4.42,1.73-6.62,2.65
			c1.42,2.02,2.4,4.92,4.35,5.9c7.26,3.65,12.07,8.9,12.1,17.22c0.12,35.44,0.22,70.88-0.16,106.31
			c-0.08,7.86-2.15,15.55-12.21,17.13c-1.46,0.23-2.56,2.68-3.83,4.11c1.71,1.23,3.41,3.5,5.15,3.53
			c16.29,0.26,32.59,0.29,48.87-0.05c2.41-0.05,4.78-2.41,7.16-3.7c-2.01-1.64-3.78-3.88-6.07-4.76c-3.27-1.26-7.29-0.83-10.31-2.41
			c-2.77-1.45-6.53-4.55-6.61-7.03c-0.56-18.33-0.3-36.69-0.3-55.38c7.73,0,14.53,0.48,21.24-0.11c10.25-0.9,15.29,4.16,17.99,13.35
			c0.7,2.37,3.24,4.19,4.94,6.27c1.33-2.57,3.63-5.07,3.83-7.72c0.8-10.66,1.21-21.37,1.18-32.06c-0.01-3.14-1.97-6.28-3.03-9.42
			c-2.06,2.41-4.27,4.71-6.14,7.26c-2.25,3.08-3.99,8.93-6.34,9.14c-11.02,0.98-22.17,0.44-33.88,0.44
			c0-10.12-0.15-19.92,0.04-29.71c0.18-9.15-2.74-22.2,2-26.43c5.47-4.87,17.85-1.88,27.23-2.45c13.18-0.8,24.28,1.75,29.04,16.27
			c0.56,1.71,3.39,2.68,5.16,3.99c1.17-2.05,3.09-4.01,3.37-6.18C349.1,89.61,349.6,81.34,350.42,71.56z M514.53,180.69
			c0.19,0,0.37,0,0.56,0c0-8.33,0.35-16.68-0.08-24.99c-0.66-12.53-6.15-19.57-17.68-21.1c-17.8-2.36-33.28,4.09-46.63,15.47
			c-2.02,1.72-3.24,7.4-1.96,9.28c1.7,2.49,7.11,5.01,9.36,4c4.78-2.14,8.55-6.55,12.75-10.02c3.47-2.87,6.64-7.47,10.52-8.19
			c7.91-1.47,13.97,5.01,15.02,14.01c1.61,13.77-0.4,16.81-10.38,19.49c-10.23,2.75-20.62,5.58-30.13,10.09
			c-12.81,6.07-16.58,15.61-12.68,26.88c3.61,10.42,15.24,16.82,27.58,14.21c6.88-1.46,13.39-4.63,20.17-6.68
			c2.6-0.79,7.03-1.87,8.01-0.66c10.02,12.29,19.63,5.29,29.01-0.38c2.33-1.41,3.41-4.9,5.07-7.43c-2.62-0.68-5.38-2.25-7.85-1.88
			c-8.76,1.32-11.04-2.96-10.72-10.68C514.76,194.98,514.53,187.83,514.53,180.69z M372.55,228.56c18.07,0,33.46,0.12,48.83-0.17
			c1.75-0.03,3.45-2.41,5.17-3.71c-1.46-1.54-2.64-3.86-4.42-4.49c-15.74-5.56-15.83-5.47-15.83-22.48
			c0-43.21,0.07-86.42,0.09-129.64c0-9.16-2.69-10.83-10.62-6.78c-6.59,3.37-13.3,6.52-19.8,10.06c-1.9,1.03-4.32,2.9-4.56,4.65
			c-0.19,1.39,2.26,3.94,4.08,4.69c8.39,3.47,11.37,10.22,11.4,18.5c0.15,36.06,0.12,72.13,0.08,108.19
			c-0.01,6.13-2.1,10.77-8.53,13.18C376.34,221.34,375.23,224.77,372.55,228.56z M553.54,201.45c-0.81,0.4-1.62,0.81-2.43,1.21
			c0,4.63,0.38,9.31-0.09,13.89c-0.72,7.04,2.21,10.7,9.07,11.31c10.9,0.97,21.85,2.99,32.7,2.51
			c17.83-0.77,28.69-12.99,28.01-29.19c-0.49-11.73-7.83-18.07-17.38-22.77c-8.78-4.32-17.93-8.05-26.21-13.19
			c-3.12-1.94-6.19-7.35-5.75-10.7c0.43-3.19,5.01-7.16,8.58-8.34c10.03-3.32,18.54,0.59,25.67,8c3.03,3.15,4.75,10.1,10.57,6.43
			c1.92-1.21,1.16-7.7,0.58-11.63c-0.78-5.34-0.78-11.88-8.46-12.65c-7.96-0.8-15.97-2.03-23.92-1.78
			c-15,0.46-26.99,9.22-29.38,20.34c-2.94,13.65,2.31,22.94,17.84,31.19c7.85,4.17,15.91,7.97,23.73,12.2
			c5.27,2.85,8.54,8.08,5.89,13.32c-1.89,3.73-7.07,7.45-11.23,8.05c-12.45,1.79-23.47-1.74-31.26-12.69
			C558.47,204.72,555.75,203.27,553.54,201.45z"/>
		<path d="M123.74,54.47c11.24,4.09,23.56,6.36,31.98,19.62c-5.22,0-8.79,0.5-12.16-0.13c-4.34-0.81-8.47-2.71-12.77-3.81
			c-5.84-1.49-9.87,1.02-9.68,6.99c1.75,55.31,5.06,110.02,50.02,151.19c22.84,20.92,49.3,33.88,79.48,39.17
			c3.03,0.53,7.26-3.82,10.43-6.5c5.52-4.66,9.97-11.45,20.33-7.41c-3.09,5.32-5.9,10.15-10.09,17.36
			c12.99-4.44,23.26,4.08,35.34-1.35c6.47-2.91,16.02,0.68,24.07,2c1.93,0.32,4.81,3.3,4.8,5.03c-0.02,2.37-2,6.34-3.84,6.79
			c-10.17,2.5-20.55,4.19-30.88,6.06c-2.9,0.53-5.97,0.35-8.78,1.13c-43.66,12.06-87.6,10.75-131.32,1.42
			c-52.47-11.2-89.02-43.96-115.82-89.19c-15.77-26.62-26.22-55.17-32.6-85.37c-1.22-5.78-2.71-11.71-5.31-16.96
			c-7.64-15.43-7.33-23.7,10.24-36.08c-3.13-7.08-0.69-11.05,6.78-12.77c7.83-1.8,12.06-5.91,8.74-14.84
			c-0.62-1.67,1.03-4.83,2.52-6.5c2.69-3.01,6.05-5.41,9.37-8.27c-3.29-4.56-7.53-8.07-8.2-12.16c-0.47-2.89,3.92-6.57,6.13-9.9
			c1.78,0,3.57,0,5.35,0c4.41,3.5,8.65,6.56,5.84,13.72c-2.33,5.94,2.02,7.64,7.29,7.8c6.16,0.18,14.53-3.16,14.1,8.53
			c-0.04,1.07,3.14,3.28,4.78,3.23c12.84-0.38,20.34,10.06,30.62,14.78c4.52,2.07,8.93,4.38,13.42,6.62
			c-7.1,1-14.23,1.97-21.37,2.93c0.41,2.31,0.78,4.44,1.16,6.58c-0.84,0.47-1.69,0.94-2.53,1.4c-1.69-2.43-3.38-4.86-5.74-8.25
			c-18.59,4.93-38.24,10.15-58.28,15.47c1.63,3.77,3.18,7.35,4.72,10.93c-0.55,0.78-1.1,1.56-1.65,2.35
			c-4.79-2.83-9.58-5.66-16.65-9.84C9.11,79.34,5.47,84.11,12.61,94.5c2.28-13.55,2.48-13.81,7.58-13.26
			c1.91,4.09,2.53,7.94,4.7,9.32c1.95,1.24,5.66,0,8.51-0.59c2.35-0.49,5.17-2.96,6.74-2.25c8.98,4.06,15.4-1.87,22.78-4.7
			c5.42-2.08,11.29-2.99,17.01-4.21c12.42-2.65,25.04-4.56,37.25-7.96C125.59,68.5,127.62,61.81,123.74,54.47z M59.04,135.31v14.19
			c-2.51,0.1-1.41,0.05-3.92,0.15c-0.26-3.39-0.48-6.79-0.79-10.18c-0.13-1.43,0.06-3.45-0.77-4.13c-1.1-0.89-3.58-1.49-4.53-0.84
			c-2.02,1.38-3.43,3.65-4.02,4.33c2.2,4.51,3.71,8.02,5.58,11.32c2.84,5.04,5.65,10.16,9.11,14.75c0.73,0.97,4.25-0.18,7.82-0.46
			l-8.94-9.51c1.95-5.45,3.36-9.38,4.77-13.32c0.69,0.1,0.56,0.08,1.25,0.17l0.76,11.44l9.29-6.12c2.45,3.98,4.64,7.52,7.25,11.77
			l-6.4,1.94c2.1,4.87,3.59,9.91,6.35,14.12c1.77,2.71,6.48,6.5,8.02,5.79c4.95-2.29,8.39,1.58,11.51,1.52
			c7.07-0.13,8.63,4.64,9.89,8.41c0.77,2.29-2.94,6.09-4.66,9.25c2.64,8.74,25.63,4.25,15.51,23.03
			c13.83,6.44,28.56,12.16,37.64,27.53c-4.36,0-7.65,0-10.95,0c0,0.19,0.01,0.38,0.01,0.57c4.58,0.83,9.16,1.66,13.75,2.49
			c-0.55,0.55-1.1,1.09-1.66,1.64c2.05,3.07,3.52,6.92,6.3,9.01c3.62,2.72,8.29,4.04,13.03,6.2c2-0.61,5.16-1.42,8.2-2.55
			c10.55-3.92,19.53,0.99,28.92,4.62c7.84,3.04,15.94,6.22,27.05,3.7c-9.53-3.92-16.7-6.73-23.75-9.82
			c-5.54-2.43-11-5.06-16.35-7.88c-2.54-1.34-4.52-3.96-7.14-4.88c-14.46-5.08-26.33-11.61-34.5-26.65
			c-7.99-14.72-21.31-26.55-31.47-38.67c0.17-14.64-7-27.35-8.73-42.37l-5.91,5.36c3.93-12.3,3.43-40.58-0.49-48.31
			c-2.29,1.34-4.55,2.67-9.07,5.32c1.2-7.26,2.03-12.3,3.12-18.91l4.84,5.89c1.9-5.02,2.3-9.6,1.67-14.03
			c-0.2-1.39-3.35-3.56-4.86-3.35c-5.52,0.79-11.01,2.13-16.29,3.94c-1.72,0.59-2.74,3.24-4.39,5.34
			c-14.14-5.41-21.1,13.94-36.63,9.75c1.74,4.62,2.51,7.42,3.8,9.94c2.49,4.84,0.35,8.13-4.08,8.47c-6.62,0.51-10.2,4.9-10.54,9.77
			c-0.52,7.39,7.41,3.18,10.83,5.71C55.98,132.28,57.51,133.79,59.04,135.31z M101.3,258.28c0.57-0.54,1.15-1.08,1.72-1.62
			c-6.95-5.99-14.51-11.4-20.67-18.12c-7.11-7.76-16.22-13.46-20.36-24.49c-3.12-8.3-10.6-14.96-16.15-22.34
			C61.37,216.46,72.53,245.3,101.3,258.28z M92.68,194.13c-2.6-0.61-4.1-1.4-5.44-1.19c-3.02,0.48-6.83,0.61-8.62,2.5
			c-1.23,1.3-0.6,6.22,0.95,7.95c5.09,5.67,10.99,10.63,17.31,16.55C101,208.83,82.98,205.26,92.68,194.13z M84.6,185.99
			c-3.17-5.84-6.35-11.68-9.34-17.2c-0.34,0.99-0.96,2.81-1.61,4.69c-4.68-1.41-8.72-2.63-14.42-4.34
			C64.31,182.15,76.17,181.34,84.6,185.99z M87.13,48.55l-9.24-7.82c-10.5,5.64-11.04,5.93-21.55,11.56l0.16,1.38h14.81L79.23,59
			C84.22,52.39,82.13,55.15,87.13,48.55z M135.9,277.57c-0.34,1.11-0.68,2.23-1.02,3.34c10.46,3.33,20.91,6.66,31.37,9.99
			c0.24-0.79,0.49-1.59,0.73-2.38C156.49,285.31,147.05,278.6,135.9,277.57z M185.25,295.19c-0.1-1.97-0.2-1.53-0.3-1.79h51.25
			c0.02,0.25,0.04-0.19,0.06,1.79H185.25z M35.36,168.27c-4.48-26.11-4.48-26.11-12.1-26.44C27.33,150.72,31.34,159.49,35.36,168.27
			z M92.39,226.1c3.4,8.58,9.57,10.15,20.14,5.94C104.89,229.78,98.64,227.94,92.39,226.1z M67.88,47.09
			c0.89-0.32,1.79-0.65,2.68-0.97c0.41-2.69,0.81-5.38,1.28-8.44c-3.85-1.26-7.3-2.38-10.75-3.5c-0.57,0.59-1.14,1.17-1.71,1.76
			C62.21,39.65,65.05,43.37,67.88,47.09z M254.83,273.94c0.01,1.12,0.02,2.24,0.02,3.36c8.8,0,17.6,0,26.4,0
			c0.01-0.6,0.01-1.2,0.02-1.8C272.46,274.98,263.64,274.46,254.83,273.94z"/>
		<path d="M760.33,225.59c-5.9,1.22-11.94,1.99-17.68,3.75c-14.16,4.35-23.05-2.16-30.53-13.32c-7.12-10.62-14.94-20.76-22.45-31.12
			c-12.58,3.57-18.94,21.34-10.53,31.1c2.31,2.67,7.57,2.6,11.19,4.37c2.58,1.26,4.69,3.49,7,5.28c-2.41,1.08-4.81,3.04-7.24,3.08
			c-15.12,0.29-30.25,0.14-48.59,0.14c3.64-4.04,5.85-6.12,7.62-8.53c2.74-3.72,7.36-7.64,7.42-11.52
			c0.56-37.93,0.31-75.88,0.35-113.82c0.01-6.46-3.02-10.63-8.82-13.17c-2.6-1.14-5.02-2.69-9.19-4.97c3.81-2.73,6.1-4.76,8.72-6.18
			c5.48-2.96,11.05-5.8,16.76-8.3c3.04-1.33,6.44-1.86,9.67-2.75c0.73,3.04,2.09,6.08,2.1,9.12c0.16,32.27,0.1,64.54,0.1,96.81
			c0,3.56,0,7.12,0,10.68c1.12,0.52,1.27,0.6,2.39,1.12c10.78-8.96,21.55-17.93,33.96-28.24c-5.06-2.06-7.91-2.79-10.27-4.3
			c-2.11-1.35-3.68-3.56-5.5-5.39c2.13-1.07,4.28-3.1,6.4-3.07c13.99,0.21,27.99,0.7,41.95,1.56c2.25,0.14,4.36,2.58,6.53,3.95
			c-2.09,1.6-4.05,4.37-6.29,4.62c-14.69,1.64-26.05,9.29-36.76,18.74c-4.34,3.83-4.52,7.16-1.27,11.42
			c7.24,9.47,14.09,19.26,21.76,28.36c6.6,7.84,14.25,14.5,25.6,14.47c1.85-0.01,3.71,1.63,5.57,2.51V225.59z"/>
		<path d="M350.42,71.56c-0.83,9.78-1.33,18.05-2.36,26.25c-0.27,2.17-2.2,4.12-3.37,6.18c-1.78-1.31-4.6-2.28-5.16-3.99
			c-4.76-14.52-15.86-17.07-29.04-16.27c-9.37,0.57-21.75-2.42-27.23,2.45c-4.74,4.23-1.82,17.27-2,26.43
			c-0.19,9.79-0.04,19.59-0.04,29.71c11.71,0,22.87,0.55,33.88-0.44c2.35-0.21,4.09-6.06,6.34-9.14c1.87-2.55,4.08-4.85,6.14-7.26
			c1.06,3.14,3.02,6.27,3.03,9.42c0.03,10.69-0.38,21.4-1.18,32.06c-0.2,2.66-2.49,5.15-3.83,7.72c-1.7-2.07-4.24-3.9-4.94-6.27
			c-2.7-9.19-7.74-14.25-17.99-13.35c-6.71,0.59-13.52,0.11-21.24,0.11c0,18.69-0.26,37.05,0.3,55.38c0.08,2.47,3.84,5.58,6.61,7.03
			c3.03,1.58,7.04,1.15,10.31,2.41c2.29,0.88,4.07,3.12,6.07,4.76c-2.39,1.29-4.75,3.65-7.16,3.7c-16.29,0.34-32.58,0.31-48.87,0.05
			c-1.73-0.03-3.43-2.3-5.15-3.53c1.27-1.43,2.38-3.88,3.83-4.11c10.06-1.58,12.13-9.28,12.21-17.13
			c0.38-35.43,0.28-70.87,0.16-106.31c-0.03-8.32-4.84-13.57-12.1-17.22c-1.94-0.98-2.92-3.88-4.35-5.9
			c2.21-0.92,4.41-2.64,6.62-2.65c30.27-0.17,60.54-0.11,90.8-0.1C343.64,71.56,346.55,71.56,350.42,71.56z"/>
		<path d="M514.53,180.69c0,7.14,0.23,14.29-0.06,21.42c-0.32,7.72,1.96,12,10.72,10.68c2.47-0.37,5.23,1.2,7.85,1.88
			c-1.66,2.53-2.74,6.02-5.07,7.43c-9.38,5.67-18.99,12.67-29.01,0.38c-0.98-1.2-5.41-0.12-8.01,0.66
			c-6.78,2.05-13.28,5.22-20.17,6.68c-12.34,2.61-23.98-3.78-27.58-14.21c-3.9-11.27-0.13-20.8,12.68-26.88
			c9.51-4.51,19.91-7.35,30.13-10.09c9.98-2.68,11.99-5.72,10.38-19.49c-1.05-9-7.12-15.48-15.02-14.01
			c-3.88,0.72-7.05,5.32-10.52,8.19c-4.2,3.46-7.96,7.88-12.75,10.02c-2.25,1.01-7.66-1.51-9.36-4c-1.28-1.87-0.06-7.55,1.96-9.28
			c13.35-11.38,28.83-17.83,46.63-15.47c11.52,1.53,17.02,8.56,17.68,21.1c0.44,8.31,0.08,16.66,0.08,24.99
			C514.9,180.69,514.71,180.69,514.53,180.69z M496.25,184.16c-9.51,3.16-17.18,5.18-24.41,8.26c-7.63,3.25-10.48,9.83-7.84,17.65
			c2.58,7.65,9.59,8.64,16.23,7.46c6-1.07,14.39-0.2,15.78-8.6C497.19,201.77,496.25,194.25,496.25,184.16z"/>
		<path d="M372.55,228.56c2.67-3.79,3.79-7.21,5.88-8c6.43-2.4,8.53-7.05,8.53-13.18c0.03-36.06,0.07-72.13-0.08-108.19
			c-0.03-8.27-3.02-15.02-11.4-18.5c-1.81-0.75-4.27-3.3-4.08-4.69c0.24-1.75,2.66-3.61,4.56-4.65c6.5-3.53,13.21-6.69,19.8-10.06
			c7.93-4.05,10.62-2.39,10.62,6.78c-0.02,43.21-0.08,86.42-0.09,129.64c0,17.01,0.09,16.92,15.83,22.48
			c1.78,0.63,2.96,2.95,4.42,4.49c-1.72,1.29-3.42,3.67-5.17,3.71C406.01,228.68,390.63,228.56,372.55,228.56z"/>
		<path d="M553.54,201.45c2.21,1.82,4.93,3.27,6.54,5.52c7.8,10.94,18.81,14.48,31.26,12.69c4.16-0.6,9.34-4.32,11.23-8.05
			c2.65-5.24-0.62-10.47-5.89-13.32c-7.82-4.23-15.88-8.02-23.73-12.2c-15.53-8.25-20.78-17.54-17.84-31.19
			c2.39-11.12,14.38-19.88,29.38-20.34c7.95-0.25,15.96,0.98,23.92,1.78c7.69,0.77,7.68,7.31,8.46,12.65
			c0.57,3.93,1.34,10.42-0.58,11.63c-5.82,3.67-7.53-3.28-10.57-6.43c-7.14-7.41-15.64-11.31-25.67-8
			c-3.56,1.18-8.15,5.15-8.58,8.34c-0.45,3.35,2.62,8.77,5.75,10.7c8.28,5.14,17.43,8.86,26.21,13.19
			c9.55,4.7,16.89,11.04,17.38,22.77c0.67,16.2-10.19,28.42-28.01,29.19c-10.84,0.47-21.8-1.54-32.7-2.51
			c-6.87-0.61-9.79-4.27-9.07-11.31c0.47-4.59,0.09-9.26,0.09-13.89C551.92,202.26,552.73,201.85,553.54,201.45z"/>
		<path class="st0" d="M54.46,130.77c-3.42-2.53-11.35,1.67-10.83-5.71c0.34-4.88,3.92-9.26,10.54-9.77
			c4.44-0.34,6.57-3.63,4.08-8.47c-1.3-2.52-2.06-5.32-3.8-9.94c15.53,4.19,22.49-15.16,36.63-9.75c1.65-2.1,2.67-4.75,4.39-5.34
			c5.27-1.81,10.77-3.15,16.29-3.94c1.51-0.22,4.66,1.95,4.86,3.35c0.64,4.43,0.24,9.01-1.67,14.03l-4.84-5.89
			c-1.09,6.6-1.92,11.64-3.12,18.91c4.52-2.65,6.78-3.98,9.07-5.32c3.92,7.73,4.42,36.01,0.49,48.31l5.91-5.36
			c1.73,15.02,8.9,27.73,8.73,42.37c10.16,12.12,23.48,23.95,31.47,38.67c8.17,15.04,20.04,21.57,34.5,26.65
			c2.62,0.92,4.6,3.54,7.14,4.88c5.35,2.82,10.81,5.45,16.35,7.88c7.05,3.09,14.22,5.9,23.75,9.82c-11.11,2.52-19.2-0.66-27.05-3.7
			c-9.39-3.64-18.37-8.54-28.92-4.62c-3.04,1.13-6.2,1.93-8.2,2.55c-4.74-2.16-9.41-3.48-13.03-6.2c-2.78-2.09-4.25-5.94-6.3-9.01
			c0.55-0.55,1.1-1.09,1.66-1.64c-4.58-0.83-9.16-1.66-13.75-2.49c0-0.19-0.01-0.38-0.01-0.57c3.3,0,6.59,0,10.95,0
			c-9.08-15.37-23.81-21.09-37.64-27.53c10.12-18.78-12.87-14.29-15.51-23.03c1.72-3.16,5.43-6.96,4.66-9.25
			c-1.26-3.77-2.82-8.54-9.89-8.41c-3.11,0.06-6.56-3.81-11.51-1.52c-1.54,0.71-6.25-3.08-8.02-5.79
			c-2.76-4.21-4.25-9.26-6.35-14.12l6.4-1.94c-2.61-4.24-4.8-7.79-7.25-11.77l-9.29,6.12l-0.76-11.44c-0.69-0.1-0.56-0.08-1.25-0.17
			c-1.41,3.93-2.82,7.87-4.77,13.32l8.94,9.51c-3.57,0.28-7.09,1.42-7.82,0.46c-3.47-4.59-6.28-9.71-9.11-14.75
			c-1.86-3.31-3.37-6.81-5.58-11.32c0.59-0.68,2-2.95,4.02-4.33c0.95-0.65,3.43-0.05,4.53,0.84c0.83,0.67,0.64,2.69,0.77,4.13
			c0.31,3.39,0.53,6.79,0.79,10.18c2.51-0.1,1.41-0.05,3.92-0.15v-14.19c8.89,2.87,4.06-7.59,10.53-8.37
			c-4.29-2.56-6.92-4.14-8.64-5.17C58.37,125.33,56.41,128.05,54.46,130.77z M80.29,138.42c-0.95,0.63-1.89,1.25-2.84,1.88
			c1.65,4.26,2.76,8.87,5.2,12.62c1,1.54,4.84,1.24,7.38,1.77c0.31-2.31,1.73-5.55,0.72-6.77
			C87.78,144.32,83.84,141.52,80.29,138.42z M106.4,135.02c-0.97,0.3-1.93,0.6-2.9,0.89c-0.77,6.73-1.97,13.62,7.87,16.79
			C109.72,146.81,108.06,140.91,106.4,135.02z"/>
		<path class="st0" d="M123.74,54.47c3.87,7.35,1.85,14.03-6.57,16.38c-12.21,3.4-24.83,5.31-37.25,7.96
			c-5.72,1.22-11.59,2.14-17.01,4.21c-7.38,2.83-13.8,8.76-22.78,4.7c-1.57-0.71-4.39,1.77-6.74,2.25
			c-2.84,0.59-6.56,1.82-8.51,0.59c-2.17-1.38-2.79-5.23-4.7-9.32c-5.1-0.55-5.3-0.3-7.58,13.26C5.47,84.11,9.11,79.34,23.6,76.24
			c7.06,4.17,11.85,7.01,16.65,9.84c0.55-0.78,1.1-1.56,1.65-2.35c-1.55-3.58-3.09-7.16-4.72-10.93
			c20.05-5.32,39.69-10.53,58.28-15.47c2.36,3.39,4.05,5.82,5.74,8.25c0.84-0.47,1.69-0.94,2.53-1.4c-0.37-2.13-0.75-4.27-1.16-6.58
			c7.13-0.97,14.26-1.93,21.37-2.93C123.91,54.64,123.74,54.47,123.74,54.47z"/>
		<path class="st0" d="M101.3,258.28c-28.77-12.98-39.93-41.82-55.45-66.57c5.54,7.39,13.03,14.04,16.15,22.34
			c4.14,11.03,13.25,16.73,20.36,24.49c6.16,6.71,13.73,12.13,20.67,18.12C102.45,257.2,101.87,257.74,101.3,258.28z"/>
		<path class="st0" d="M92.68,194.13c-9.7,11.12,8.32,14.69,4.2,25.82c-6.32-5.92-12.21-10.88-17.31-16.55
			c-1.55-1.73-2.18-6.65-0.95-7.95c1.79-1.89,5.6-2.03,8.62-2.5C88.58,192.74,90.08,193.52,92.68,194.13z"/>
		<path class="st0" d="M84.6,185.99c-8.43-4.64-20.29-3.83-25.37-16.85c5.7,1.72,9.74,2.93,14.42,4.34c0.64-1.88,1.27-3.7,1.61-4.69
			C78.25,174.31,81.43,180.15,84.6,185.99z"/>
		<path class="st0" d="M77.4,57.77l-6.09-4.1H56.49c-0.1-0.81-0.07-0.56-0.18-1.37l26.95-7.01l2.17,1.83
			C80.36,53.85,82.48,51.04,77.4,57.77z"/>
		<path class="st0" d="M135.9,277.57c11.15,1.03,20.59,7.73,31.08,10.95c-0.24,0.79-0.49,1.59-0.73,2.38
			c-10.46-3.33-20.91-6.66-31.37-9.99C135.22,279.8,135.56,278.69,135.9,277.57z"/>
		<path class="st0" d="M185.25,293.4h51.01c-0.02-0.19-0.04,0.25-0.06,1.79h-51.25C185.05,293.65,185.15,293.21,185.25,293.4z"/>
		<path d="M55.25,131.2c1.95-2.72,3.91-5.43,6.47-8.99c1.72,1.03,4.35,2.6,8.64,5.17c-6.47,0.78-1.64,11.24-10.53,8.37
			C58.31,134.23,56.78,132.71,55.25,131.2z"/>
		<path class="st0" d="M35.36,168.27c-4.02-8.78-8.03-17.55-12.1-26.44C30.88,142.16,30.88,142.16,35.36,168.27z"/>
		<path class="st0" d="M92.39,226.1c6.25,1.84,12.49,3.68,20.14,5.94C101.96,236.25,95.79,234.68,92.39,226.1z"/>
		<path class="st0" d="M67.88,47.09c-2.83-3.72-5.67-7.43-8.5-11.15c0.57-0.59,1.14-1.17,1.71-1.76c3.45,1.12,6.9,2.25,10.75,3.5
			c-0.46,3.05-0.87,5.75-1.28,8.44C69.67,46.44,68.77,46.76,67.88,47.09z"/>
		<path class="st0" d="M254.83,273.94c8.81,0.52,17.63,1.04,26.44,1.55c-0.01,0.6-0.01,1.2-0.02,1.8c-8.8,0-17.6,0-26.4,0
			C254.84,276.18,254.84,275.06,254.83,273.94z"/>
		<path class="st0" d="M496.25,184.16c0,10.09,0.94,17.61-0.25,24.76c-1.39,8.39-9.78,7.53-15.78,8.6
			c-6.63,1.18-13.64,0.19-16.23-7.46c-2.64-7.82,0.21-14.4,7.84-17.65C479.07,189.34,486.75,187.32,496.25,184.16z"/>
		<path d="M80.29,138.42c3.56,3.11,7.49,5.9,10.47,9.5c1.01,1.22-0.41,4.45-0.72,6.77c-2.55-0.54-6.38-0.23-7.38-1.77
			c-2.43-3.75-3.55-8.35-5.2-12.62C78.39,139.67,79.34,139.04,80.29,138.42z"/>
		<path d="M106.4,135.02c1.66,5.89,3.32,11.79,4.98,17.68c-9.84-3.18-8.65-10.06-7.87-16.79
			C104.47,135.61,105.44,135.31,106.4,135.02z"/>
	</g>
</g>
</svg>
