<?xml version="1.0" encoding="utf-8"?>
<!-- Generator: Adobe Illustrator 24.2.3, SVG Export Plug-In . SVG Version: 6.00 Build 0)  -->
<svg version="1.1" id="Layer_1" xmlns="http://www.w3.org/2000/svg" xmlns:xlink="http://www.w3.org/1999/xlink" x="0px" y="0px"
	 viewBox="0 0 1058 496.04" style="enable-background:new 0 0 1058 496.04;" xml:space="preserve">
<style type="text/css">
	.st0{fill:#FFFFFF;}
</style>
<g id="_x34_w8CON.tif">
	<g>
		<path class="st0" d="M0,106.07C0,70.71,0,35.36,0,0c352.67,0,705.33,0,1058,0c0,165.34,0,330.69,0,496.04
			c-352.67,0-705.33,0-1058,0c0-4.16,0-8.32,0-12.48c22.23,0,44.45,0,68.57,0c0-44.03,0-87.22,0-133.09
			c33.82,23.45,68.07,24.58,103.61,14.77c36.2-9.99,59.63-35.28,80.96-65.59c0,23.41,0,46.81,0,71.5c21.74,0,41.46,0.1,61.18-0.03
			c20.83-0.13,45.21,6.13,61.52-2.57c16.83-8.97,25.85-32.55,38.21-49.8c7.07-9.87,13.96-19.87,22.02-31.35
			c17.68,25.83,34.1,49.17,49.71,73.03c5.11,7.81,10.65,11.13,20.18,10.93c29.18-0.6,58.38-0.22,87.58-0.22c9.17,0,18.34,0,27.6,0
			c0-89.5,0-176.45,0-264.78c-38.65,0-76.14,0.97-113.54-0.44c-16.77-0.63-26.79,4.65-35.2,18.83
			c-10.64,17.95-23.57,34.55-36.69,53.43c-15.62-22.62-29.26-42.76-43.41-62.54c-2.72-3.8-7.41-8.73-11.26-8.79
			c-42.08-0.63-84.17-0.39-128.44-0.39c0,24.33,0,47.2,0,70.07c-20.88-31.34-45.25-56.1-81.37-66.01
			c-35.41-9.72-69.85-7.76-101.94,15.88c-0.85-8.08-1.37-13.12-2.13-20.35C44.56,106.07,22.28,106.07,0,106.07z M844.64,160.86
			c0-13.91-0.49-27.84,0.16-41.72c0.47-9.96-2.8-14.21-13.2-13.76c-13.53,0.6-27.19,1.07-40.64-0.13
			c-15.51-1.38-20.25,3.39-20.07,19.66c0.94,81.57,0.71,163.16,0.28,244.74c-0.2,38.78-20.37,57.97-59.35,58.35
			c-6.57,0.06-13.13,0.01-19.69,0.01c0,20.62,0,39.05,0,58.55c20.36,0,39.58,0.5,58.78-0.1c48.8-1.51,82.37-29.87,90.66-78.17
			c3.36-19.56,3.04-39.75,4.51-61.5c5.64,3.22,9.91,5.83,14.34,8.16c44,23.08,89.26,27.03,135.21,6.89
			c33.82-14.82,46.69-41.81,43.68-78.16c-2.97-35.94-16.84-55.56-51.84-67.9c-8.27-2.92-17.11-4.2-25.61-6.54
			c-14.96-4.12-30.55-6.92-44.57-13.17c-13.05-5.82-12.85-17.21-0.95-25.31c4.55-3.1,10.3-4.9,15.77-6.13
			c24.61-5.55,46.11,0.74,63.9,19.22c13.67-15.45,26.39-29.83,39.01-44.1C986.94,82.75,890.1,94.14,844.64,160.86z M807.19,75.3
			c24,0.27,39.95-13.93,40.08-35.67c0.13-21.84-15.56-36.32-39.43-36.38c-23.52-0.06-39.57,14.86-39.29,36.52
			C768.82,61.23,783.84,75.04,807.19,75.3z M697.05,371.06c23.7-0.17,38.11-13.7,38.13-35.79c0.02-22.64-14.94-36.4-39.38-36.24
			c-23.59,0.16-38,13.75-38.09,35.91C657.62,357.71,672.35,371.23,697.05,371.06z M290.45,3.27c-24.84-0.49-39.69,12.74-39.89,35.57
			c-0.2,22.46,13.72,36,37.45,36.44c23.92,0.44,39.36-12.63,40.09-33.94C328.88,18.33,314.46,3.75,290.45,3.27z M586.12,75.29
			c23.42-0.06,38.85-13.97,39.15-35.27C625.58,17.77,610.18,3.34,586,3.25c-24.22-0.1-38.96,13.97-38.67,36.89
			C547.61,62.09,562.24,75.35,586.12,75.29z"/>
		<path d="M0,106.07c22.28,0,44.56,0,67.13,0c0.76,7.22,1.28,12.26,2.13,20.35c32.09-23.64,66.53-25.61,101.94-15.88
			c36.12,9.92,60.5,34.68,81.37,66.01c0-22.87,0-45.74,0-70.07c44.27,0,86.36-0.24,128.44,0.39c3.85,0.06,8.55,4.99,11.26,8.79
			c14.15,19.78,27.8,39.92,43.41,62.54c13.12-18.88,26.05-35.48,36.69-53.43c8.41-14.18,18.42-19.46,35.2-18.83
			c37.4,1.41,74.89,0.44,113.54,0.44c0,88.33,0,175.28,0,264.78c-9.27,0-18.43,0-27.6,0c-29.19,0-58.39-0.38-87.58,0.22
			c-9.53,0.2-15.07-3.12-20.18-10.93c-15.62-23.86-32.04-47.2-49.71-73.03c-8.05,11.48-14.95,21.48-22.02,31.35
			c-12.35,17.25-21.37,40.82-38.21,49.8c-16.3,8.69-40.68,2.43-61.52,2.57c-19.72,0.13-39.44,0.03-61.18,0.03
			c0-24.68,0-48.09,0-71.5c-21.33,30.3-44.76,55.6-80.96,65.59c-35.54,9.81-69.79,8.68-103.61-14.77c0,45.86,0,89.06,0,133.09
			c-24.12,0-46.35,0-68.57,0C0,357.73,0,231.9,0,106.07z M68.19,231.98c0,9.84-0.24,16.6,0.04,23.34
			c1.06,25.7,18.99,47.93,43.7,54.44c31.26,8.24,67.2-9.43,81.57-40.08c14.68-31.32,4.54-74.06-22.51-92.44
			c-23.63-16.06-48.56-16.81-73.89-3.98C71.36,186.3,65.74,208.85,68.19,231.98z M545.39,338.3c1-0.25,2-0.51,3-0.76
			c0-70.03,0-140.07,0-215.07c-25.84,37.8-49.2,71.71-72.04,105.98c-1.58,2.37-0.42,8.15,1.49,10.98
			C500.13,272.54,522.81,305.38,545.39,338.3z M326.01,333.1c3.09-1.09,4.44-1.14,4.89-1.8c21.28-30.79,42.72-61.47,63.31-92.71
			c2.11-3.19,0.66-10.8-1.84-14.59c-19.17-29.07-38.98-57.72-58.72-86.42c-1.48-2.15-3.94-3.63-7.64-6.93
			C326.01,199.39,326.01,265.57,326.01,333.1z"/>
		<path d="M844.64,160.86c45.46-66.72,142.31-78.11,190.4-21.12c-12.63,14.27-25.35,28.65-39.01,44.1
			c-17.79-18.47-39.29-24.77-63.9-19.22c-5.47,1.23-11.22,3.03-15.77,6.13c-11.9,8.1-12.1,19.49,0.95,25.31
			c14.02,6.26,29.61,9.05,44.57,13.17c8.5,2.34,17.34,3.62,25.61,6.54c34.99,12.34,48.86,31.96,51.84,67.9
			c3.01,36.34-9.87,63.34-43.68,78.16c-45.95,20.14-91.21,16.18-135.21-6.89c-4.43-2.32-8.7-4.94-14.34-8.16
			c-1.48,21.74-1.16,41.94-4.51,61.5c-8.29,48.3-41.86,76.66-90.66,78.17c-19.19,0.59-38.42,0.1-58.78,0.1c0-19.5,0-37.93,0-58.55
			c6.55,0,13.12,0.06,19.69-0.01c38.98-0.38,59.15-19.57,59.35-58.35c0.43-81.58,0.66-163.17-0.28-244.74
			c-0.19-16.27,4.55-21.04,20.07-19.66c13.45,1.2,27.11,0.72,40.64,0.13c10.4-0.46,13.67,3.8,13.2,13.76
			C844.15,133.02,844.64,146.95,844.64,160.86z M874.21,291.09c25.46,20.85,52.44,28.55,82.95,21.25
			c10.63-2.55,20.07-7.7,20.48-20.16c0.41-12.41-9.24-16.53-19.25-18.8c-10.61-2.4-21.48-3.59-32.16-5.72
			c-32.06-6.39-63.36-14.12-77.62-48.77c-0.17-0.41-1.8-0.21-2.96-0.31c0,33.32,0,66.56,0,104.02
			C856.74,310.38,865.22,301.02,874.21,291.09z"/>
		<path d="M807.19,75.3c-23.35-0.26-38.37-14.07-38.65-35.53c-0.28-21.66,15.77-36.58,39.29-36.52
			c23.87,0.06,39.56,14.53,39.43,36.38C847.14,61.37,831.19,75.57,807.19,75.3z"/>
		<path d="M697.05,371.06c-24.7,0.18-39.43-13.35-39.34-36.12c0.09-22.16,14.5-35.75,38.09-35.91c24.44-0.16,39.4,13.6,39.38,36.24
			C735.16,357.36,720.75,370.89,697.05,371.06z"/>
		<path d="M290.45,3.27c24.01,0.48,38.43,15.06,37.64,38.07c-0.73,21.31-16.17,34.39-40.09,33.94
			c-23.73-0.44-37.64-13.99-37.45-36.44C250.76,16.02,265.61,2.78,290.45,3.27z"/>
		<path d="M586.12,75.29c-23.88,0.07-38.51-13.19-38.79-35.15C547.03,17.21,561.77,3.15,586,3.25c24.18,0.1,39.59,14.52,39.28,36.77
			C624.97,61.32,609.54,75.22,586.12,75.29z"/>
		<path class="st0" d="M68.19,231.98c-2.45-23.12,3.17-45.68,28.9-58.72c25.34-12.84,50.26-12.08,73.89,3.98
			c27.05,18.38,37.19,61.12,22.51,92.44c-14.37,30.66-50.31,48.32-81.57,40.08c-24.71-6.51-42.63-28.74-43.7-54.44
			C67.95,248.58,68.19,241.82,68.19,231.98z"/>
		<path class="st0" d="M545.39,338.3c-22.58-32.92-45.27-65.76-67.56-98.87c-1.91-2.84-3.07-8.61-1.49-10.98
			c22.84-34.27,46.21-68.19,72.04-105.98c0,75,0,145.04,0,215.07C547.39,337.79,546.39,338.04,545.39,338.3z"/>
		<path class="st0" d="M326.01,333.1c0-67.53,0-133.71,0-202.44c3.7,3.3,6.16,4.78,7.64,6.93c19.74,28.7,39.55,57.35,58.72,86.42
			c2.5,3.79,3.94,11.4,1.84,14.59c-20.59,31.24-42.03,61.92-63.31,92.71C330.45,331.97,329.1,332.01,326.01,333.1z"/>
		<path class="st0" d="M874.21,291.09c-8.99,9.92-17.47,19.28-28.55,31.52c0-37.46,0-70.7,0-104.02c1.15,0.1,2.79-0.09,2.96,0.31
			c14.26,34.65,45.56,42.38,77.62,48.77c10.68,2.13,21.55,3.32,32.16,5.72c10.01,2.26,19.66,6.38,19.25,18.8
			c-0.42,12.46-9.85,17.62-20.48,20.16C926.65,319.64,899.68,311.94,874.21,291.09z"/>
	</g>
</g>
</svg>
