<?xml version="1.0" encoding="utf-8"?>
<!-- Generator: Adobe Illustrator 24.2.3, SVG Export Plug-In . SVG Version: 6.00 Build 0)  -->
<svg version="1.1" id="Layer_1" xmlns="http://www.w3.org/2000/svg" xmlns:xlink="http://www.w3.org/1999/xlink" x="0px" y="0px"
	 viewBox="0 0 641.36 641.58" style="enable-background:new 0 0 641.36 641.58;" xml:space="preserve">
<style type="text/css">
	.st0{fill:#FFFFFF;}
</style>
<g id="JJQCFn.tif">
	<g>
		<g>
			<path d="M306.43,180.96c0-4.75,0-8.74,0-13.43c-46.36,0-92.32,0-137.75,0c-0.81-1.06-1.33-1.42-1.32-1.78
				c0.24-25.84-1.37-51.88,1.26-77.48c3.22-31.37,23.66-52.1,50.35-66.78c22-12.1,46.03-17.68,70.83-19.9
				c36.17-3.23,72.12-2.17,107.07,8.9c25.63,8.12,48.09,21.26,63.46,44.25c9.47,14.15,13.99,29.84,13.97,46.86
				c-0.03,23.82-0.05,47.65-0.07,71.47c0,2.47,0,4.93,0,8.31c3.5,0,6.38,0,9.25,0c19.74-0.02,39.48-0.3,59.22,0.01
				c34.26,0.53,59.63,16.75,77.1,45.57c15.61,25.75,20.43,54.51,21.37,84.06c1.04,32.95-2,65.33-16.89,95.42
				c-14.01,28.3-35.82,47.72-67.61,52.35c-16.92,2.47-34.4,1.36-51.63,1.4c-54,0.13-108.01,0.05-162.01,0.05c-2.65,0-5.3,0-8.15,0
				c0,5.01,0,9,0,13.96c3.44,0,6.54,0,9.65,0c40.61-0.03,81.23,0.04,121.84-0.22c6-0.04,8.27,1.25,8.1,7.8
				c-0.47,17.91-0.41,35.85-0.11,53.77c0.6,35.83-15.78,62.02-45.42,80.65c-23.58,14.81-49.92,21.27-77.25,23.76
				c-35.92,3.27-71.63,2.1-106.38-8.82c-24.27-7.63-45.73-19.85-61.32-40.67c-11.38-15.19-17.04-32.26-16.89-51.34
				c0.19-23.6,0.05-47.19,0.05-70.79c0-2.43,0-4.87,0-8.12c-12.99,0-25.21,0.28-37.4-0.07c-16.97-0.48-34.33,0.62-50.79-2.64
				c-30.72-6.08-50.67-26.72-63.55-54.52c-10.56-22.81-14.41-47.12-15.2-72.01c-0.95-29.69,1.4-58.97,12.8-86.8
				c13.41-32.74,35.83-55.75,71.93-61.44c14.43-2.27,29.41-1.34,44.14-1.36c57.18-0.1,114.36,0.01,171.53,0.02
				C302.37,181.4,304.14,181.14,306.43,180.96z M167.14,432.33c0-3.14,0-5.57,0-8c0-15.66-0.28-31.32,0.13-46.97
				c0.18-6.73,0.95-13.67,2.86-20.1c9.04-30.33,35.14-50.09,66.82-50.25c54.68-0.28,109.37,0.04,164.06-0.14
				c27.82-0.09,45-17.55,45.01-45.16c0.02-53.78-0.08-107.55,0.06-161.33c0.04-13.86-4.67-25.73-13.55-36.07
				c-13.73-15.99-32.01-24.25-51.84-29.35c-30.69-7.89-61.92-8.58-93.23-5c-21.09,2.41-41.51,7.63-59.8,18.92
				c-16.22,10.01-28.88,23.27-31.58,42.92c-1.5,10.93-0.59,22.19-0.73,33.3c-0.06,4.66-0.01,9.32-0.01,14.77
				c47.05,0,92.97,0,138.84,0c0,23.43,0,46.04,0,69.32c-2.85,0-5.29,0-7.73,0c-75.11,0.01-150.22-0.02-225.33,0.14
				c-6.05,0.01-12.3,0.7-18.12,2.3c-22.56,6.21-35.37,22.83-43.79,43.29c-11.13,27.05-12.6,55.51-10.51,84.26
				c1.45,20.03,5.39,39.53,15.16,57.39c12.81,23.43,31.9,36.42,59.39,35.83c17.92-0.38,35.85-0.08,53.78-0.09
				C160.15,432.33,163.26,432.33,167.14,432.33z M307.07,432.31c2.59,0,4.38,0,6.17,0c75.09,0.01,150.19,0.08,225.28-0.08
				c6.73-0.01,13.7-0.56,20.13-2.37c22.47-6.32,35.19-23.03,43.6-43.5c10.84-26.4,12.43-54.21,10.58-82.24
				c-1.31-19.75-4.88-39.15-14.16-56.99c-13.06-25.11-32.78-39.07-62.14-38.01c-18.58,0.67-37.2,0.11-55.81,0.14
				c-1.96,0-3.93,0.25-6.42,0.42c0,18.17,0.08,35.83-0.02,53.49c-0.09,14.61-3.54,28.39-11.98,40.45
				c-14.9,21.28-35.48,31.28-61.54,31.14c-53.54-0.3-107.08-0.26-160.62-0.08c-27.37,0.09-44.65,17.43-44.72,44.71
				c-0.14,54.9-0.05,109.8,0,164.7c0,2.47,0.29,4.99,0.82,7.4c4.85,22.05,19.84,35.56,38.89,45.34
				c20.54,10.54,42.86,14.51,65.6,15.93c33.98,2.12,67.65,0.49,99.5-13.19c20.69-8.89,39.04-21.75,43.71-45.05
				c3.36-16.79,2-34.52,2.78-52.69c-47.56,0-93.48,0-139.64,0C307.07,478.42,307.07,455.81,307.07,432.31z"/>
			<path class="st0" d="M167.14,432.33c-3.87,0-6.98,0-10.1,0c-17.93,0-35.86-0.3-53.78,0.09c-27.5,0.59-46.58-12.39-59.39-35.83
				c-9.76-17.86-13.71-37.36-15.16-57.39c-2.09-28.75-0.62-57.21,10.51-84.26c8.42-20.46,21.23-37.08,43.79-43.29
				c5.82-1.6,12.07-2.29,18.12-2.3c75.11-0.17,150.22-0.13,225.33-0.14c2.44,0,4.87,0,7.73,0c0-23.28,0-45.89,0-69.32
				c-45.87,0-91.78,0-138.84,0c0-5.45-0.05-10.11,0.01-14.77c0.14-11.11-0.77-22.37,0.73-33.3c2.7-19.65,15.37-32.91,31.58-42.92
				c18.29-11.29,38.72-16.51,59.8-18.92c31.31-3.58,62.53-2.89,93.23,5c19.83,5.1,38.11,13.36,51.84,29.35
				c8.88,10.34,13.58,22.2,13.55,36.07c-0.14,53.78-0.04,107.55-0.06,161.33c-0.01,27.61-17.19,45.07-45.01,45.16
				c-54.69,0.18-109.37-0.14-164.06,0.14c-31.68,0.16-57.78,19.91-66.82,50.25c-1.91,6.42-2.69,13.36-2.86,20.1
				c-0.41,15.65-0.13,31.31-0.13,46.97C167.13,426.76,167.14,429.19,167.14,432.33z M278.71,97.39
				c-0.11-15.51-12.17-27.42-27.74-27.4c-15.68,0.01-28.29,12.67-27.99,28.09c0.3,15.25,12.83,27.62,27.98,27.62
				C266.5,125.7,278.82,113.13,278.71,97.39z"/>
			<path class="st0" d="M307.07,432.31c0,23.5,0,46.1,0,69.53c46.16,0,92.07,0,139.64,0c-0.78,18.17,0.58,35.9-2.78,52.69
				c-4.67,23.3-23.02,36.16-43.71,45.05c-31.85,13.68-65.52,15.32-99.5,13.19c-22.74-1.42-45.06-5.39-65.6-15.93
				c-19.05-9.78-34.04-23.29-38.89-45.34c-0.53-2.41-0.81-4.93-0.82-7.4c-0.05-54.9-0.14-109.8,0-164.7
				c0.07-27.28,17.35-44.62,44.72-44.71c53.54-0.18,107.08-0.22,160.62,0.08c26.06,0.15,46.64-9.86,61.54-31.14
				c8.44-12.06,11.89-25.84,11.98-40.45c0.11-17.66,0.02-35.32,0.02-53.49c2.5-0.17,4.46-0.42,6.42-0.42
				c18.6-0.03,37.23,0.53,55.81-0.14c29.36-1.06,49.07,12.89,62.14,38.01c9.28,17.84,12.86,37.24,14.16,56.99
				c1.85,28.04,0.27,55.84-10.58,82.24c-8.41,20.47-21.14,37.17-43.6,43.5c-6.43,1.81-13.41,2.36-20.13,2.37
				c-75.09,0.15-150.19,0.08-225.28,0.08C311.45,432.31,309.67,432.31,307.07,432.31z M362.65,543.75
				c0.09,15.94,12.18,27.95,28.02,27.84c15.51-0.11,28.02-12.92,27.73-28.4c-0.28-15.01-13.22-27.54-28.26-27.35
				C374.86,516.03,362.57,528.51,362.65,543.75z"/>
			<path d="M278.71,97.39c0.12,15.74-12.21,28.31-27.75,28.31c-15.15,0-27.68-12.37-27.98-27.62c-0.3-15.42,12.31-28.08,27.99-28.09
				C266.54,69.97,278.59,81.88,278.71,97.39z"/>
			<path d="M362.65,543.75c-0.08-15.24,12.21-27.71,27.49-27.91c15.04-0.19,27.98,12.33,28.26,27.35
				c0.28,15.48-12.22,28.29-27.73,28.4C374.83,571.7,362.74,559.69,362.65,543.75z"/>
		</g>
	</g>
</g>
</svg>
