<?xml version="1.0" encoding="utf-8"?>
<!-- Generator: Adobe Illustrator 24.2.3, SVG Export Plug-In . SVG Version: 6.00 Build 0)  -->
<svg version="1.1" id="Layer_1" xmlns="http://www.w3.org/2000/svg" xmlns:xlink="http://www.w3.org/1999/xlink" x="0px" y="0px"
	 viewBox="0 0 687.48 687.48" style="enable-background:new 0 0 687.48 687.48;" xml:space="preserve">
<style type="text/css">
	.st0{fill:#FFFFFF;}
</style>
<g id="WwxRyX.tif">
	<g>
		<g>
			<path class="st0" d="M687.48,687.48c-229.11,0-458.23,0-687.48,0C0,458.44,0,229.33,0,0c229.07,0,458.28,0,687.48,0
				C687.48,229.03,687.48,458.23,687.48,687.48z M462.07,462.55c0-4.44,0-8.21,0-11.97c0-97.86-0.15-195.72,0.13-293.58
				c0.05-19.1-6.53-34.77-19.94-47.94c-17.46-17.16-38.82-27.76-61.68-35.2c-72.09-23.47-145.14-24.52-218.61-7.5
				c-28.21,6.53-55.07,16.76-78.25,34.83c-19.06,14.86-29.09,33.5-28.94,58.68c0.63,103,0.35,206,0.18,309
				c-0.03,16.79,5.63,30.94,16.79,43.15c11.81,12.92,26.26,22.16,42.04,29.26c52.73,23.71,108.46,29.66,165.5,27.41
				c7.47-0.29,14.93-1.05,22.88-1.63c-0.81-7.41-1.49-13.7-2.22-20.38c-5.62,0.33-10.28,0.6-14.93,0.87
				c-49.72,2.89-98.58-1.33-145.79-18.2c-18.17-6.49-35.37-14.95-49.46-28.62c-9.23-8.95-14.37-19.38-13.9-32.75
				c0.61-17.18,0.13-34.4,0.17-51.61c0-1.82,0.31-3.64,0.55-6.35c21.86,19.04,46.66,29.93,73.07,37.36
				c63.52,17.87,127.75,19.18,192.22,6.37c35.29-7.01,68.98-18.49,97.09-42.37c0.36-0.31,1.14-0.11,2.29-0.19
				c0,17.15,0,34.06,0,51.38C448.21,462.55,454.61,462.55,462.07,462.55z M526.4,559.07c-0.01,0-0.02,0-0.03,0
				c0-11.15,0.28-22.32-0.06-33.46c-0.7-23.12-19.48-41.45-42.27-41.61c-22.79-0.16-42.16,17.9-42.78,41.02
				c-0.6,22.52-0.67,45.08,0.01,67.59c0.88,29.05,29.99,48.32,57.09,38.27c4.58-1.7,7.95-2.79,12.59,0.85
				c2.28,1.79,8.73,1.09,11.23-0.98c2.48-2.06,4.48-8.91,3.03-10.75c-4.98-6.28-2.7-11.51-0.59-17.63
				c1.42-4.11,1.61-8.76,1.71-13.18C526.56,579.15,526.4,569.11,526.4,559.07z M333.74,591.57c0.52,3.45,0.8,6.54,1.47,9.54
				c4.92,22.05,27.35,36.08,50.16,31.44c22.18-4.51,37.15-26.51,33.01-48.51c-4.05-21.51-19.3-34.19-42.97-35.71
				c-11.13-0.72-19.89-9.3-20.54-20.12c-0.66-11.04,6.81-20.87,17.44-22.95c10.72-2.09,21.17,4.09,24.76,14.7
				c0.69,2.04,1.18,4.14,1.71,6c6.94,0,13.51,0,20.43,0c-1.53-17.97-9.48-31.14-25.76-38.2c-16.53-7.17-32.18-4.55-45.43,7.49
				c-13.23,12.03-17.28,27.29-11.9,44.51c5.59,17.89,20.51,28.42,41.11,29.57c12.79,0.72,21.96,11.17,20.87,23.78
				c-1.04,12.01-12.27,21.21-24.42,19.38c-11.7-1.76-17.49-9.63-19.32-20.93C347.54,591.57,340.91,591.57,333.74,591.57z
				 M569.3,612.69c0-3.52,0-6.16,0-8.79c0-35.73,0.03-71.45-0.02-107.18c-0.01-7.58-3.96-12.39-10.03-12.67
				c-6.11-0.28-10.86,4.59-10.88,11.81c-0.08,41.98-0.09,83.96,0,125.94c0.02,7.58,4.09,11.77,11.53,11.82
				c20.76,0.15,41.53,0.21,62.28-0.12c2.98-0.05,7.09-1.64,8.59-3.91c1.79-2.69,2.92-7.93,1.45-10.17
				c-2.07-3.15-6.72-6.29-10.38-6.44C604.7,612.33,587.52,612.69,569.3,612.69z M140.31,478.16c-0.15-8.49-7.59-15.71-16.02-15.56
				c-8.49,0.15-15.7,7.57-15.56,16.02c0.14,8.44,7.63,15.72,16.02,15.57C133.22,494.04,140.46,486.58,140.31,478.16z"/>
			<path d="M462.07,462.55c-7.46,0-13.86,0-20.81,0c0-17.32,0-34.23,0-51.38c-1.15,0.08-1.93-0.11-2.29,0.19
				c-28.11,23.88-61.8,35.36-97.09,42.37c-64.47,12.82-128.7,11.5-192.22-6.37c-26.41-7.43-51.21-18.32-73.07-37.36
				c-0.24,2.71-0.55,4.53-0.55,6.35c-0.04,17.2,0.44,34.42-0.17,51.61c-0.47,13.37,4.67,23.8,13.9,32.75
				c14.09,13.67,31.29,22.13,49.46,28.62c47.22,16.86,96.08,21.09,145.79,18.2c4.65-0.27,9.31-0.54,14.93-0.87
				c0.73,6.68,1.41,12.97,2.22,20.38c-7.95,0.58-15.41,1.34-22.88,1.63c-57.05,2.25-112.78-3.7-165.5-27.41
				c-15.79-7.1-30.24-16.34-42.04-29.26c-11.16-12.21-16.82-26.36-16.79-43.15c0.17-103,0.44-206-0.18-309
				c-0.15-25.17,9.88-43.82,28.94-58.68c23.18-18.07,50.04-28.3,78.25-34.83c73.47-17.02,146.53-15.97,218.61,7.5
				c22.86,7.44,44.22,18.04,61.68,35.2c13.4,13.17,19.99,28.84,19.94,47.94c-0.28,97.86-0.13,195.72-0.13,293.58
				C462.07,454.35,462.07,458.12,462.07,462.55z M264.71,75.88c-44.1,0.07-81.42,4.48-117.6,16.32
				c-21.11,6.92-41.38,15.71-57.53,31.64c-18.24,17.98-18.14,36.93,0,54.9c12.28,12.17,27.29,20.01,43.13,26.32
				c31.38,12.51,64.18,18.38,97.76,20.58c46.05,3.02,91.44-0.53,135.71-14.09c22.52-6.9,44.15-15.97,61.36-32.86
				c18.2-17.87,18.11-37,0.01-54.91c-11.46-11.34-25.33-18.94-40.05-25.03C346.2,81.66,302.81,76.26,264.71,75.88z M440.95,195.2
				c-25.02,21.59-53.43,32.9-83.49,40.43c-58.47,14.65-117.45,15.58-176.58,4.76c-30.41-5.56-59.79-14.57-86.19-31.34
				c-6.12-3.88-11.82-8.41-18.67-13.33c0,3.1,0,5.24,0,7.38c0,16.75,0.47,33.51-0.15,50.24c-0.49,13.36,4.6,23.8,13.8,32.78
				c12.37,12.07,27.34,19.93,43.17,26.25c31.59,12.6,64.63,18.46,98.43,20.59c47.4,2.98,94.1-0.86,139.47-15.62
				c21.11-6.87,41.25-15.92,57.36-31.92c6.62-6.57,12.43-14.13,12.67-23.68C441.34,240.11,440.95,218.46,440.95,195.2z
				 M440.96,302.39c-19.83,17.27-41.57,27.84-64.93,35.09c-66.89,20.74-134.71,22.29-203.02,8.48
				c-30.13-6.09-58.98-15.86-84.47-33.77c-3.92-2.76-7.65-5.79-12.51-9.49c0,3.39,0,5.54,0,7.7c0,16.75,0.46,33.51-0.15,50.24
				c-0.49,13.36,4.63,23.79,13.83,32.76c12.37,12.07,27.34,19.92,43.18,26.23c31.59,12.6,64.63,18.45,98.43,20.58
				c47.4,2.98,94.1-0.87,139.46-15.64c21.11-6.88,41.24-15.93,57.35-31.94c6.61-6.58,12.4-14.14,12.65-23.69
				C441.33,347.32,440.96,325.68,440.96,302.39z"/>
			<path d="M526.4,559.07c0,10.04,0.16,20.08-0.07,30.12c-0.1,4.42-0.29,9.07-1.71,13.18c-2.11,6.12-4.39,11.35,0.59,17.63
				c1.46,1.84-0.54,8.69-3.03,10.75c-2.5,2.07-8.94,2.77-11.23,0.98c-4.64-3.64-8.01-2.55-12.59-0.85
				c-27.1,10.06-56.21-9.22-57.09-38.27c-0.68-22.51-0.61-45.07-0.01-67.59c0.62-23.12,19.99-41.19,42.78-41.02
				c22.79,0.16,41.57,18.48,42.27,41.61c0.34,11.14,0.06,22.31,0.06,33.46C526.38,559.07,526.39,559.07,526.4,559.07z M487.94,612
				c0.65-0.77,1.29-1.53,1.94-2.3c-4.41-3.68-9.2-7-13.13-11.13c-6.1-6.42-3.31-16.51,4.99-17.48c3.37-0.39,7.6,1.8,10.57,4
				c4.25,3.14,7.7,7.36,11.5,11.13c0.54-0.38,1.07-0.75,1.61-1.13c0-22.73,0.1-45.46-0.04-68.19c-0.08-12.76-9.66-22.06-22.07-21.9
				c-11.95,0.16-21.14,9.59-21.2,22.09c-0.11,21.2-0.14,42.4,0,63.6C462.2,605.15,473.51,614.34,487.94,612z"/>
			<path d="M333.74,591.57c7.16,0,13.79,0,20.63,0c1.83,11.31,7.62,19.18,19.32,20.93c12.15,1.82,23.38-7.37,24.42-19.38
				c1.1-12.61-8.08-23.06-20.87-23.78c-20.6-1.15-35.52-11.69-41.11-29.57c-5.39-17.22-1.33-32.48,11.9-44.51
				c13.24-12.04,28.9-14.66,45.43-7.49c16.28,7.06,24.23,20.23,25.76,38.2c-6.93,0-13.49,0-20.43,0c-0.52-1.86-1.02-3.96-1.71-6
				c-3.59-10.61-14.04-16.79-24.76-14.7c-10.63,2.07-18.11,11.9-17.44,22.95c0.65,10.81,9.41,19.4,20.54,20.12
				c23.67,1.53,38.92,14.21,42.97,35.71c4.14,22-10.83,44.01-33.01,48.51c-22.81,4.64-45.24-9.39-50.16-31.44
				C334.54,598.11,334.26,595.02,333.74,591.57z"/>
			<path d="M569.3,612.69c18.22,0,35.4-0.37,52.54,0.29c3.66,0.14,8.31,3.28,10.38,6.44c1.47,2.24,0.34,7.48-1.45,10.17
				c-1.5,2.26-5.61,3.86-8.59,3.91c-20.76,0.33-41.52,0.27-62.28,0.12c-7.44-0.05-11.52-4.24-11.53-11.82
				c-0.09-41.98-0.09-83.96,0-125.94c0.01-7.22,4.77-12.09,10.88-11.81c6.07,0.28,10.02,5.09,10.03,12.67
				c0.05,35.73,0.02,71.45,0.02,107.18C569.3,606.54,569.3,609.17,569.3,612.69z"/>
			<path d="M140.31,478.16c0.15,8.42-7.08,15.88-15.56,16.03c-8.39,0.15-15.88-7.13-16.02-15.57c-0.14-8.45,7.07-15.87,15.56-16.02
				C132.72,462.45,140.16,469.67,140.31,478.16z"/>
			<path class="st0" d="M264.71,75.88c38.1,0.38,81.49,5.78,122.78,22.87c14.73,6.09,28.6,13.7,40.05,25.03
				c18.1,17.91,18.19,37.04-0.01,54.91c-17.2,16.89-38.84,25.96-61.36,32.86c-44.27,13.56-89.66,17.1-135.71,14.09
				c-33.58-2.2-66.38-8.07-97.76-20.58c-15.84-6.31-30.85-14.15-43.13-26.32c-18.14-17.97-18.23-36.92,0-54.9
				c16.15-15.92,36.42-24.72,57.53-31.64C183.29,80.35,220.61,75.95,264.71,75.88z"/>
			<path class="st0" d="M440.95,195.2c0,23.26,0.38,44.91-0.18,66.54c-0.25,9.54-6.06,17.1-12.67,23.68
				c-16.11,16-36.24,25.05-57.36,31.92c-45.37,14.76-92.06,18.61-139.47,15.62c-33.79-2.13-66.83-7.99-98.43-20.59
				c-15.84-6.32-30.81-14.18-43.17-26.25c-9.2-8.98-14.29-19.42-13.8-32.78c0.61-16.73,0.15-33.49,0.15-50.24c0-2.14,0-4.28,0-7.38
				c6.85,4.92,12.55,9.45,18.67,13.33c26.41,16.77,55.79,25.78,86.19,31.34c59.13,10.82,118.11,9.89,176.58-4.76
				C387.53,228.1,415.94,216.79,440.95,195.2z M124.85,248.09c-8.41-0.2-15.9,6.99-16.12,15.46c-0.21,8.38,7.02,15.92,15.46,16.13
				c8.41,0.21,15.9-6.99,16.12-15.48C140.52,255.8,133.32,248.29,124.85,248.09z"/>
			<path class="st0" d="M440.96,302.39c0,23.29,0.38,44.93-0.17,66.55c-0.24,9.55-6.03,17.11-12.65,23.69
				c-16.1,16.01-36.23,25.06-57.35,31.94c-45.37,14.77-92.06,18.62-139.46,15.64c-33.79-2.12-66.83-7.98-98.43-20.58
				c-15.84-6.31-30.81-14.17-43.18-26.23c-9.2-8.97-14.32-19.4-13.83-32.76c0.61-16.73,0.15-33.49,0.15-50.24c0-2.16,0-4.31,0-7.7
				c4.86,3.7,8.58,6.73,12.51,9.49c25.49,17.91,54.34,27.68,84.47,33.77c68.32,13.81,136.13,12.27,203.02-8.48
				C399.39,330.24,421.13,319.67,440.96,302.39z M124.31,355.35c-8.49,0.14-15.7,7.55-15.58,16c0.13,8.44,7.6,15.73,16,15.59
				c8.47-0.14,15.72-7.59,15.58-16.01C140.17,362.44,132.74,355.21,124.31,355.35z"/>
			<path class="st0" d="M487.94,612c-14.43,2.34-25.73-6.85-25.83-21.32c-0.14-21.2-0.11-42.4,0-63.6
				c0.06-12.5,9.26-21.93,21.2-22.09c12.41-0.17,21.99,9.14,22.07,21.9c0.14,22.73,0.04,45.46,0.04,68.19
				c-0.54,0.38-1.07,0.75-1.61,1.13c-3.79-3.76-7.25-7.98-11.5-11.13c-2.97-2.19-7.2-4.39-10.57-4c-8.3,0.97-11.09,11.06-4.99,17.48
				c3.93,4.13,8.72,7.45,13.13,11.13C489.23,610.47,488.58,611.23,487.94,612z"/>
			<path d="M124.85,248.09c8.47,0.2,15.67,7.7,15.46,16.12c-0.21,8.48-7.71,15.68-16.12,15.48c-8.44-0.21-15.67-7.75-15.46-16.13
				C108.94,255.08,116.43,247.9,124.85,248.09z"/>
			<path d="M124.31,355.35c8.43-0.14,15.86,7.09,16,15.58c0.14,8.43-7.11,15.87-15.58,16.01c-8.4,0.14-15.87-7.15-16-15.59
				C108.6,362.9,115.82,355.49,124.31,355.35z"/>
		</g>
	</g>
</g>
</svg>
