<?xml version="1.0" encoding="utf-8"?>
<!-- Generator: Adobe Illustrator 24.2.3, SVG Export Plug-In . SVG Version: 6.00 Build 0)  -->
<svg version="1.1" id="Layer_1" xmlns="http://www.w3.org/2000/svg" xmlns:xlink="http://www.w3.org/1999/xlink" x="0px" y="0px"
	 viewBox="0 0 639.5 639.5" style="enable-background:new 0 0 639.5 639.5;" xml:space="preserve">
<style type="text/css">
	.st0{fill:#FFFFFF;}
</style>
<g id="szv0NX_1_">
	<g>
		<path class="st0" d="M639.26,639.95c-213.17,0-426.33,0-639.5,0c0-213.17,0-426.33,0-639.5c213.17,0,426.33,0,639.5,0
			C639.26,213.62,639.26,426.78,639.26,639.95z M192.33,467.55c-56.31,42.73-118.04,58.7-185.87,56.06
			c5.89,4.89,11.7,8.64,17.78,11.9c75.38,40.36,155.81,52.94,239.65,39.72c197.51-31.14,311.14-204.39,310.09-373.41
			c-0.06-9.08,2.5-14.51,9.58-19.93c20.71-15.84,38.44-34.63,53.29-57.27c-23.09,6.3-44.84,12.22-66.59,18.15
			c22.19-20.24,40.79-41.18,49.6-69.13c-22.93,8.45-45.19,16.7-67.48,24.85c-8.89,3.25-15.61,1.82-23.55-5.17
			c-72.65-64.03-186.36-30.52-211.87,62.93c-5.54,20.3-4.54,42.38-6.67,64.92C204.24,213.74,115.3,167.7,44.24,84.81
			c-17.07,30.47-21.78,61.33-14.7,93.74c7.08,32.42,25.04,58.36,51.53,78.82c-0.78,1.12-1.55,2.25-2.33,3.37
			c-17.24-4.93-34.48-9.86-51.63-14.77c-6.92,49.21,28.43,96.08,96.31,129.51c-16.8,0-33.6,0-52.59,0
			C93.28,431.29,132.49,461.24,192.33,467.55z"/>
		<path d="M192.33,467.55c-59.83-6.31-99.04-36.26-121.48-92.06c18.99,0,35.79,0,52.59,0c-67.88-33.43-103.24-80.3-96.31-129.51
			c17.15,4.91,34.39,9.84,51.63,14.77c0.78-1.12,1.55-2.25,2.33-3.37c-26.49-20.46-44.44-46.4-51.53-78.82
			c-7.08-32.41-2.37-63.27,14.7-93.74c71.06,82.89,160,128.93,266.05,136.36c2.13-22.54,1.13-44.62,6.67-64.92
			C342.47,62.8,456.18,29.29,528.83,93.32c7.93,6.99,14.65,8.42,23.55,5.17c22.29-8.15,44.55-16.4,67.48-24.85
			c-8.81,27.95-27.41,48.89-49.6,69.13c21.75-5.93,43.49-11.86,66.59-18.15c-14.85,22.64-32.58,41.43-53.29,57.27
			c-7.08,5.41-9.64,10.85-9.58,19.93c1.05,169.03-112.58,342.27-310.09,373.41c-83.84,13.22-164.27,0.64-239.65-39.72
			c-6.08-3.26-11.89-7.01-17.78-11.9C74.29,526.25,136.02,510.28,192.33,467.55z"/>
	</g>
</g>
</svg>
